<svg xmlns="http://www.w3.org/2000/svg" viewBox="0 0 52 52" class="social_media_svg" pointer-events="bounding-box"><path d="M26 0C11.64 0 0 11.64 0 26s11.64 26 26 26 26-11.64 26-26S40.36 0 26 0zm-3.125 10.156.844.031v.126c-.016.111-.608 2.07-1.219 4.062-.067.22-.234.776-.375 1.25-.14.474-.307 1.036-.375 1.25l-.125.406v2.438c0 2.28-.025 2.418-.094 2.437-.153.042-1.754.013-1.781-.031-.036-.058-.037-3.51 0-4 .047-.628-.05-1.113-.5-2.375-.146-.41-.418-1.19-.594-1.75-1.273-4.05-1.215-3.811-1.093-3.813.838-.007 1.894-.011 1.906 0 .008.009.268.987.593 2.188.326 1.2.588 2.198.594 2.219.007.02.211-.656.438-1.532.475-1.835.74-2.865.75-2.875.021-.019.259-.035 1.031-.03zm3.375 2.938c.424.025.86.153 1.25.406.498.322.776.776.938 1.469.071.306.093.54.093 2.687 0 2.61-.014 2.779-.281 3.344-.257.545-.83 1.02-1.437 1.188-.268.074-.74.121-.97.093-.76-.092-1.475-.545-1.812-1.156-.343-.623-.364-.944-.343-3.688.015-2.125.009-2.258.093-2.562.201-.725.615-1.233 1.219-1.531a2.422 2.422 0 0 1 1.25-.25zm8.219.094V22.125l-.125.031c-.14.029-1.428.03-1.532 0-.063-.017-.062-.087-.062-.437v-.407l-.25.25c-.556.542-1.163.793-1.719.72-.422-.057-.643-.229-.812-.563-.213-.42-.219-.41-.219-4.594v-3.906h1.688l.03 3.593c.02 3.911.017 3.817.25 3.875.216.054.454-.041.75-.343l.282-.313v-3.406l.031-3.406h.844l.844-.032zM26 14.655c-.246.035-.447.21-.531.5-.087.298-.088 4.733 0 5.031.065.224.28.467.437.5a.79.79 0 0 0 .594-.125c.292-.222.296-.235.313-2.75.012-1.952-.004-2.264-.063-2.53-.08-.36-.195-.552-.469-.626a.75.75 0 0 0-.281 0zm-.719 8.656c1.535-.008 3.025.003 4.313.032 2.974.066 6.177.215 7.031.312 1.105.126 1.9.696 2.438 1.781.405.82.523 1.473.687 3.438.13 1.557.148 2.516.125 4.312-.028 2.15-.14 4.03-.344 5.094-.216 1.124-.746 2.107-1.406 2.625-.51.401-1.053.577-1.906.625-.254.015-.58.02-.719.032-.493.038-3.116.146-4.562.187-2.151.06-5.923.068-7.97.031-.98-.017-2.123-.015-2.562-.031-2.946-.106-4.97-.23-5.375-.313-.576-.116-1.22-.51-1.594-.968-.598-.735-.938-1.627-1.093-3-.36-3.193-.343-6.92.031-10 .164-1.35.567-2.32 1.25-3 .39-.388.75-.591 1.25-.719.811-.207 5.802-.41 10.406-.437zm-10.593 3v1.594h1.875l.03 5.063c.006 2.783.02 5.095.032 5.125.016.041.202.04.844.031h.812l.032-5.094.03-5.125h1.908l-.032-.812v-.781H14.688zm12.03 0V38.157h1.5v-.406c0-.264.032-.406.063-.406.026 0 .193.14.375.312.588.553 1.084.719 1.719.532.243-.072.554-.391.687-.688.256-.57.25-.582.25-3.781 0-2.627.004-2.936-.062-3.219-.211-.909-.696-1.308-1.469-1.25-.433.033-.779.2-1.187.594-.178.171-.327.312-.344.312-.017 0-.031-.875-.031-1.937v-1.907h-1.5zm8.407 2.938a2.155 2.155 0 0 0-.812.125c-.815.297-1.306.83-1.5 1.656-.07.292-.063.546-.063 2.688 0 2.627-.019 2.743.25 3.281.479.958 1.692 1.461 2.781 1.156.81-.226 1.384-.783 1.594-1.562.036-.133.05-.515.063-.844l.03-.594h-1.562v.532c-.022.61-.09.836-.312 1.03-.237.208-.687.222-.969.032-.336-.226-.392-.63-.375-1.875V34h1.625l1.594-.031-.031-1.313c-.025-1.463-.035-1.668-.282-2.187-.35-.74-1.188-1.199-2.031-1.219zm-14.5.125v3.781c0 4.14-.013 4.226.219 4.625.253.436.874.578 1.5.344.302-.113.638-.353.937-.656.138-.14.283-.25.313-.25.04 0 .062.12.062.468v.47h1.5v-8.782h-1.5v6.75l-.344.344c-.258.257-.372.331-.53.375-.271.074-.42.002-.532-.188-.084-.143-.083-.2-.094-3.718l-.031-3.563h-1.5zm14.469 1.219c.337 0 .543.145.687.437.092.186.113.254.125.938v.75h-.812c-.71 0-.822-.006-.844-.063-.039-.101.011-1.266.062-1.437.122-.403.376-.625.782-.625zm-5.969.125a.544.544 0 0 1 .469.312c.076.154.085.277.093 2.625.01 2.253.004 2.498-.062 2.688a.58.58 0 0 1-.219.312c-.252.169-.604.129-.937-.125l-.156-.125V31.062l.156-.125c.225-.171.452-.234.656-.218z" class="social_media_icon youtube"></path></svg>
